HIERARCHY
ROOT Hips
{
  OFFSET -273.158 89.797 -265.332
  CHANNELS 6 Xposition Yposition Zposition Zrotation Xrotation Yrotation
  JOINT ToSpine
  {
    OFFSET -2.69724 7.43032 -0.144315
    CHANNELS 3 Zrotation Xrotation Yrotation
    JOINT Spine
    {
      OFFSET -0.0310711 10.7595 1.96963
      CHANNELS 3 Zrotation Xrotation Yrotation
      JOINT Spine1
      {
        OFFSET 13.1342 3.43533 0.764692
        CHANNELS 3 Zrotation Xrotation Yrotation
        JOINT Neck
        {
          OFFSET 29.8703 7.82586 -0.130764
          CHANNELS 3 Zrotation Xrotation Yrotation
          JOINT Head
          {
            OFFSET 9.52751 0.295786 -0.907742
            CHANNELS 3 Zrotation Xrotation Yrotation
            End Site
            {
              OFFSET 16.4037 0.713936 2.7358
            }
          }
        }
        JOINT LeftShoulder
        {
          OFFSET 27.5574 4.95586 2.47156
          CHANNELS 3 Zrotation Xrotation Yrotation
          JOINT LeftArm
          {
            OFFSET 1.20734 -0.998971 20.1238
            CHANNELS 3 Zrotation Xrotation Yrotation
            JOINT LeftForeArm
            {
              OFFSET 26.8049 -0.0536703 -0.155908
              CHANNELS 3 Zrotation Xrotation Yrotation
              JOINT LeftHand
              {
                OFFSET 26.6817 0 0.320147
                CHANNELS 3 Zrotation Xrotation Yrotation
                End Site
                {
                  OFFSET 18.6119 0 0.382219
                }
              }
            }
          }
        }
        JOINT RightShoulder
        {
          OFFSET 27.5927 4.71444 -2.65209
          CHANNELS 3 Zrotation Xrotation Yrotation
          JOINT RightArm
          {
            OFFSET 2.83739 -1.17114 -18.7564
            CHANNELS 3 Zrotation Xrotation Yrotation
            JOINT RightForeArm
            {
              OFFSET 28.839 -0.0548439 1.22491
              CHANNELS 3 Zrotation Xrotation Yrotation
              JOINT RightHand
              {
                OFFSET 26.5114 0 -0.101894
                CHANNELS 3 Zrotation Xrotation Yrotation
                End Site
                {
                  OFFSET 18.2168 0 0
                }
              }
            }
          }
        }
      }
    }
  }
  JOINT LeftUpLeg
  {
    OFFSET -4.76168 -1.9167 -10.2353
    CHANNELS 3 Zrotation Xrotation Yrotation
    JOINT LeftLeg
    {
      OFFSET 2.55951 -42.0585 -8.02213
      CHANNELS 3 Zrotation Xrotation Yrotation
      JOINT LeftFoot
      {
        OFFSET 3.16357 -42.5282 -3.95426
        CHANNELS 3 Zrotation Xrotation Yrotation
        JOINT LeftToeBase
        {
          OFFSET 0.346054 -6.02161 12.8035
          CHANNELS 3 Zrotation Xrotation Yrotation
          End Site
          {
            OFFSET 0.134235 -1.35082 5.13018
          }
        }
      }
    }
  }
  JOINT RightUpLeg
  {
    OFFSET -4.94151 -1.41743 10.6446
    CHANNELS 3 Zrotation Xrotation Yrotation
    JOINT RightLeg
    {
      OFFSET -2.56294 -42.0364 -7.94377
      CHANNELS 3 Zrotation Xrotation Yrotation
      JOINT RightFoot
      {
        OFFSET -3.0952 -42.555 -4.02241
        CHANNELS 3 Zrotation Xrotation Yrotation
        JOINT RightToeBase
        {
          OFFSET -0.0828122 -6.13587 12.8035
          CHANNELS 3 Zrotation Xrotation Yrotation
          End Site
          {
            OFFSET -0.131328 -1.35082 5.13018
          }
        }
      }
    }
  }
}
MOTION
Frames:	10
Frame Time:	0.0333333
-285.731 89.0707 -278.769 64.1529 -33.9732 -17.12 -70.1915 0 88.8779 77.2292 66.1601 1.69768 5.42233 13.4074 8.16948 -154.205 19.0756 172.029 -153.058 57.8532 -178.492 0.426022 -13.3662 -29.9283 -83.7433 38.8913 -87.5425 16.4871 10.4341 -58.0307 0.420957 0.000575402 0.35866 -1.41079 4.11649 48.9597 -72.4948 -34.4792 68.9773 6.36007 -17.4093 25.5819 0.58676 0.00033114 0.0646654 -74.6598 -1.31024 95.3307 -2.04598 34.5742 -19.2253 3.56802 -5.50245 -0.810516 13.1694 -25.7978 7.32058 -23.7967 -3.06881 76.915 4.28641 28.8902 9.06003 -4.65032 9.47838 0.403027 2.31925 -19.917 -10.3475 
-281.438 88.883 -273.902 63.0063 -36.3811 -14.3836 -70.1915 0 88.8779 79.8641 66.0686 4.6174 6.03154 13.8385 7.21407 -155.296 19.052 173.148 -154.703 57.9334 -177.898 0.395942 -13.3704 -30.9194 -85.7119 39.7702 -84.2457 15.0348 9.46405 -58.0348 0.420957 0.000575402 0.35866 -1.4609 4.24321 49.0667 -78.8081 -31.1705 66.4415 6.82875 -26.8506 24.0972 0.58676 0.00033114 0.0646654 -73.8244 2.81553 92.6776 -3.57683 41.1019 -15.0782 -0.559416 0.276546 0.00496133 13.9337 -26.8498 8.44536 -22.973 2.25915 74.7975 1.78755 37.1195 2.57093 -11.4158 2.71587 1.68416 1.72877 -14.5318 1.37008 
-277.169 88.8361 -269.612 63.8737 -38.3638 -12.6893 -70.1915 0 88.8779 85.1433 66.2567 3.19299 5.8732 14.7295 5.0104 -155.197 18.9854 173.736 -155.468 57.9497 -177.218 0.304987 -13.6905 -31.6994 -85.9214 40.8307 -81.7994 13.3285 8.88001 -56.4552 0.420957 0.000575402 0.35866 -1.55999 4.59427 48.5495 -82.8311 -30.4103 66.0986 6.19883 -30.5234 23.0263 0.58676 0.00033114 0.0646654 -71.0476 5.39574 93.662 -4.59516 51.3516 -11.1189 -5.25374 8.49372 1.63098 7.45884 -15.9033 1.93828 -24.8233 6.50454 78.5951 2.54401 43.1606 4.72245 -9.11891 -3.04934 1.32444 2.45928 -10.0128 -16.6286 
-273.158 89.797 -265.332 64.9661 -38.8156 -11.3373 -70.1915 0 88.8779 90.5544 66.8614 -0.475823 4.50577 15.4839 4.22079 -154.103 19.5837 173.955 -156.131 58.654 -176.447 0.229851 -13.8942 -32.6217 -83.6429 41.4852 -81.7137 9.70181 7.33384 -52.8907 0.420957 0.000575402 0.35866 -1.57612 4.87889 46.9649 -81.7007 -33.9037 67.8627 5.15024 -24.4549 23.1643 0.58676 0.00033114 0.0646654 -65.4752 6.02595 91.8417 -6.98795 62.1417 -7.37031 -8.39275 13.8645 3.06994 2.07294 -6.4218 6.73311 -29.6305 7.25675 76.9798 2.26873 43.5145 1.95009 -11.7372 -7.38895 1.48967 1.3774 -2.24014 -7.80437 
-269.276 91.1354 -261.648 62.8446 -39.6481 -13.2769 -70.1915 0 88.8779 88.0782 68.1278 4.35797 4.60863 17.4082 2.21711 -155.092 20.4203 174.561 -157.749 59.6239 -175.678 0.244711 -13.7097 -33.4068 -80.6444 42.921 -83.8569 10.232 8.74665 -49.5182 0.420957 0.000575402 0.35866 -1.63453 5.25387 45.7603 -74.3893 -38.1672 74.5031 4.90714 -15.0448 25.0086 0.58676 0.00033114 0.0646654 -56.2463 5.314 91.7159 -10.4244 70.5407 -0.454793 -3.69183 8.28503 1.29118 2.62618 -5.87557 0.604359 -32.6097 8.70454 78.6417 2.06751 41.8881 1.43936 -11.7329 -9.36597 1.44092 0.989267 0.803192 -6.46331 
-265.4 92.6881 -257.555 62.8873 -39.6335 -14.9457 -70.1915 0 88.8779 85.5035 69.2747 4.99714 4.77998 18.5349 2.36091 -155.944 20.8528 174.906 -158.634 60.1299 -175.213 0.314225 -13.3615 -33.7383 -78.8779 44.7946 -83.8698 14.1675 13.6505 -46.478 0.420957 0.000575402 0.35866 -1.68598 5.55435 44.9757 -68.1267 -39.5778 81.3534 4.20676 -7.93529 28.4464 0.58676 0.00033114 0.0646654 -49.0106 4.03423 92.5339 -12.7184 73.2272 1.37497 -2.33695 5.81623 0.779609 5.0705 -11.804 6.14821 -37.754 9.50894 82.72 1.66469 39.574 -0.321386 -9.43038 -11.1668 1.32216 1.18898 0.0383672 -7.3902 
-261.625 94.201 -253.549 62.7471 -40.5419 -16.4833 -70.1915 0 88.8779 88.4876 70.7646 1.3415 2.82553 20.274 1.8243 -154.663 21.314 174.618 -159.154 60.6986 -173.804 0.335817 -13.2909 -33.5572 -77.7745 46.6619 -82.2807 12.149 13.4238 -42.4272 0.420957 0.000575402 0.35866 -1.71347 5.57732 45.3186 -66.6824 -39.2865 83.9644 2.55259 -4.15829 32.4505 0.58676 0.00033114 0.0646654 -42.529 3.86514 94.4618 -11.2893 72.0242 1.39051 -1.2818 0.826868 0.148818 4.33333 -10.4676 6.21137 -43.6433 9.28574 84.011 1.42791 35.81 0.620716 -7.61314 -11.427 1.26661 0.932475 -0.379825 -5.62632 
-257.821 95.1266 -249.75 62.1388 -40.6195 -17.5337 -70.1915 0 88.8779 87.9157 71.7565 1.66363 2.37859 21.4836 1.37412 -154.108 21.7183 173.621 -157.618 61.0356 -174.584 0.370999 -13.196 -33.0801 -74.69 48.3833 -82.8226 11.1126 14.4099 -37.8882 0.420957 0.000575402 0.35866 -1.6754 5.58119 44.6512 -66.9467 -39.2475 86.5936 11.2263 -15.9746 35.8508 0.58676 0.00033114 0.0646654 -36.4354 3.12346 94.9362 -8.01876 67.0286 -1.09877 -0.826651 -1.1997 -0.0858178 6.42521 -14.4839 8.99795 -48.5958 7.80041 82.1542 1.69667 32.2218 3.70546 -7.39793 -10.469 1.247 1.1251 -5.54195 -4.05145 
-253.704 95.484 -246.15 60.3282 -42.0636 -19.6547 -70.1915 0 88.8779 89.1082 72.9523 1.68755 1.62296 23.0292 0.230505 -155.221 21.7229 175.234 -159.073 61.1396 -173 0.444104 -12.8422 -33.3351 -71.6022 49.8034 -82.9112 5.19341 7.81839 -33.642 0.420957 0.000575402 0.35866 -1.70345 5.97331 43.1245 -64.809 -39.0053 91.0604 8.74157 -10.6477 39.905 0.58676 0.00033114 0.0646654 -31.8255 3.1881 96.2694 -4.88706 58.1126 -3.03411 -0.559799 -2.99999 -0.267385 7.88826 -16.9761 10.183 -52.2049 7.12294 81.7276 1.82218 30.3479 4.7495 -9.77001 -9.44807 1.34567 1.06979 -8.47748 -0.566865 
-249.62 95.465 -242.443 57.9743 -43.4629 -21.869 -70.1915 0 88.8779 88.9712 74.3282 2.81717 0.765376 24.5384 -0.214834 -156.157 21.7528 176.252 -159.781 61.2088 -172.524 0.451825 -12.7795 -33.6021 -72.1833 51.1906 -80.0202 3.9105 6.62055 -30.7063 0.420957 0.000575402 0.35866 -1.66176 6.06209 42.0358 -65.4796 -37.793 93.2539 11.9887 -12.4751 44.5593 0.58676 0.00033114 0.0646654 -28.8113 3.53395 96.7937 -3.04301 45.6083 -5.81916 -1.38341 -4.01753 -0.274992 8.65483 -18.223 12.9841 -55.4756 6.62074 81.2959 1.91728 28.7718 6.77566 -9.60223 -8.48642 1.34327 1.68838 -13.8548 0.0667816 
